{"glyphs":{":":{"x_min":0,"x_max":286,"ha":286,"o":""},"$":{"x_min":0,"x_max":440,"ha":440,"o":"m -13 11 l -15 15 l 27 155 l 56 160 l 70 44 q 109 32 146 31 l 185 206 l 172 212 q 150 222 128 234 q 107 246 90 262 q 73 278 62 301 q 51 323 51 355 q 51 420 109 465 q 166 510 258 519 l 270 573 l 314 577 l 302 520 q 380 519 441 500 l 443 495 l 401 374 l 375 370 l 359 467 q 326 477 292 478 l 258 316 l 278 307 q 301 296 323 283 q 345 271 362 254 q 380 237 391 214 q 401 191 401 160 q 401 84 340 38 q 278 -8 181 -13 l 167 -74 l 123 -78 l 137 -13 q 67 -10 -13 11 z m 225 188 l 190 32 q 240 37 263 57 q 286 77 286 107 q 286 136 269 154 q 253 173 225 188 z m 249 476 q 210 471 188 453 q 165 435 165 407 q 165 382 178 366 q 191 350 218 335 z"},"?":{"x_min":0,"x_max":454,"ha":454,"o":"m 139 650 q 236 679 306 679 q 383 679 430 644 q 478 608 478 550 q 478 518 466 492 q 455 466 436 444 q 416 421 391 401 q 366 381 339 360 q 313 341 294 326 q 274 312 261 298 q 248 285 240 272 q 233 259 233 245 q 233 227 246 206 l 221 190 q 191 215 167 251 q 144 288 144 312 q 144 329 151 344 q 158 358 171 373 q 184 387 203 402 q 223 417 248 436 q 271 453 292 467 q 312 481 328 497 q 344 512 352 529 q 361 546 361 570 q 361 599 340 616 q 320 633 289 633 q 251 633 216 620 l 166 508 l 142 505 l 135 646 z m 183 135 q 214 135 235 115 q 255 94 255 61 q 255 28 234 8 q 212 -13 181 -13 q 148 -13 128 8 q 108 28 108 61 q 108 94 129 115 q 150 135 183 135 z"},"<":{"x_min":0,"x_max":552,"ha":552,"o":"m 36 260 l 506 455 l 506 383 l 119 225 l 506 67 l 506 -4 l 36 191 z"},"'":{"x_min":0,"x_max":201,"ha":201,"o":"m 120 726 l 228 726 l 136 489 l 100 489 z"},"=":{"x_min":0,"x_max":552,"ha":552,"o":"m 36 348 l 506 348 l 506 279 l 36 279 z m 36 172 l 506 172 l 506 103 l 36 103 z"},"a":{"x_min":0,"x_max":579,"ha":579,"o":"m 534 455 q 516 395 497 302 l 453 85 q 451 74 451 66 q 451 56 455 50 q 459 44 468 40 q 477 37 491 36 q 506 35 527 35 l 523 12 q 438 -9 395 -9 q 358 -9 337 8 q 316 24 316 55 l 316 64 q 228 -13 189 -13 q 123 -13 79 38 q 35 89 35 167 q 35 291 119 376 q 203 461 332 461 q 388 461 454 443 q 490 449 525 460 z m 383 404 q 356 416 323 416 q 259 416 217 343 q 176 270 176 186 q 176 136 191 99 q 207 62 227 62 q 254 62 323 114 z"},"L":{"x_min":0,"x_max":574,"ha":574,"o":"m 325 544 l 252 158 q 242 104 232 50 l 428 50 l 518 190 l 548 195 l 504 2 l 500 -1 q 390 0 277 0 l 153 0 q 81 0 2 -1 l 5 23 l 71 42 q 84 45 87 57 q 91 76 96 100 q 101 125 107 154 l 181 542 q 186 567 189 587 q 192 607 195 623 q 197 636 187 640 l 123 659 l 127 684 q 210 682 281 682 q 350 682 428 684 l 424 659 l 357 641 q 345 638 342 625 q 338 608 332 576 q 325 543 325 544 z"},"3":{"x_min":0,"x_max":457,"ha":457,"o":"m 69 163 q 162 172 215 207 q 269 242 269 306 q 269 348 241 373 q 214 398 169 398 q 115 398 52 361 l 38 400 q 131 464 240 464 q 318 464 365 427 q 413 391 413 333 q 413 273 362 232 q 312 191 216 167 l 216 165 q 224 166 227 166 q 305 166 352 128 q 399 90 399 28 q 399 -13 383 -48 q 366 -83 336 -111 q 306 -139 263 -160 q 220 -181 168 -196 q 115 -210 54 -217 q -7 -224 -73 -225 l -69 -182 q 15 -177 75 -161 q 135 -145 175 -119 q 214 -94 233 -60 q 251 -26 251 14 q 251 65 216 95 q 181 125 127 125 q 97 125 63 119 z"},";":{"x_min":0,"x_max":256,"ha":256,"o":""},"J":{"x_min":0,"x_max":362,"ha":362,"o":"m 120 684 q 161 683 198 682 q 235 682 268 682 q 305 682 343 682 q 380 683 420 684 l 417 659 l 350 641 q 338 638 334 625 q 331 608 326 588 q 322 568 318 544 l 237 118 q 210 -24 145 -100 q 80 -176 -101 -212 l -108 -181 q -8 -137 29 -79 q 66 -21 86 84 l 173 542 q 178 567 181 587 q 185 607 188 623 q 190 636 179 640 l 115 659 z"},"V":{"x_min":0,"x_max":663,"ha":663,"o":"m 366 193 l 572 555 q 587 583 597 602 q 607 621 607 629 q 607 639 590 644 l 544 657 l 549 683 q 615 682 670 682 q 725 682 774 683 l 771 658 l 717 643 q 693 635 680 620 q 667 604 658 588 l 309 -2 l 257 -6 l 155 581 q 152 598 149 609 q 146 621 142 627 q 134 640 117 645 l 65 658 l 68 683 q 148 682 219 682 q 287 682 372 683 l 370 658 l 322 645 q 312 641 305 636 q 299 630 299 615 q 299 600 306 556 z"},"\"":{"x_min":0,"x_max":362,"ha":362,"o":""},"7":{"x_min":0,"x_max":472,"ha":472,"o":"m 6 -197 l 386 325 l 98 325 l 49 225 l 17 222 l 52 449 l 56 453 q 139 451 271 451 l 298 451 q 434 451 499 453 l 486 378 q 275 91 136 -195 l 8 -200 z"},"S":{"x_min":0,"x_max":546,"ha":546,"o":"m 459 638 q 427 648 390 648 q 321 648 275 615 q 229 583 230 527 q 231 501 242 482 q 254 462 272 447 q 290 432 312 419 q 334 406 357 393 q 386 376 413 359 q 439 341 460 318 q 480 296 493 267 q 505 239 505 201 q 505 98 416 41 q 327 -16 195 -16 q 111 -16 20 10 l 18 15 l 70 192 l 101 197 l 114 46 q 153 32 196 32 q 269 32 317 66 q 365 100 365 156 q 365 183 354 203 q 343 223 325 239 q 307 254 284 267 q 262 279 239 292 q 214 306 188 322 q 162 338 141 361 q 120 383 106 413 q 93 442 93 483 q 93 583 174 639 q 255 695 391 695 q 475 695 556 673 l 558 668 l 503 510 l 475 506 z"},"}":{"x_min":0,"x_max":353,"ha":353,"o":"m 322 281 q 297 276 279 269 q 262 263 250 251 q 237 240 229 222 q 222 204 216 177 l 171 -39 q 163 -80 146 -107 q 130 -134 104 -150 q 78 -166 42 -172 q 5 -178 -43 -178 l -38 -152 q -2 -145 18 -135 q 39 -125 50 -110 q 62 -96 67 -76 q 73 -56 79 -28 l 111 131 q 117 162 126 188 q 135 213 150 233 q 166 253 188 268 q 210 282 243 291 l 244 293 q 224 300 209 308 q 195 317 186 328 q 177 339 173 354 q 169 369 169 388 q 169 402 171 418 q 173 435 177 453 l 209 611 q 213 629 216 644 q 219 659 219 671 q 219 683 215 693 q 212 703 203 710 q 195 718 180 724 q 166 730 145 735 l 149 761 q 186 761 216 757 q 247 754 268 744 q 289 733 301 715 q 312 696 312 665 q 312 644 307 622 l 263 405 q 258 383 258 365 q 258 349 262 338 q 267 328 276 321 q 285 313 297 309 q 310 305 325 301 z"},"Z":{"x_min":0,"x_max":600,"ha":600,"o":"m -11 -1 l -9 23 l 455 632 l 210 632 l 157 514 l 129 510 l 132 680 l 136 684 q 260 682 368 682 l 492 682 q 571 682 642 684 l 640 659 l 177 50 l 438 50 l 529 193 l 558 197 l 512 2 l 509 -1 q 361 0 253 0 l 118 0 q 49 0 -11 -1 z"},"x":{"x_min":0,"x_max":541,"ha":541,"o":"m 47 438 q 130 460 179 460 q 197 460 209 456 q 221 453 230 446 q 238 439 245 429 q 251 419 257 406 q 267 385 279 361 q 291 337 303 311 q 368 400 407 431 q 447 461 501 461 q 523 461 543 459 q 528 407 505 349 l 501 347 q 471 353 450 353 q 415 353 390 333 q 366 313 328 259 q 340 234 352 208 q 364 183 376 159 q 387 135 397 114 q 408 92 417 74 q 423 61 429 53 q 436 45 446 41 q 455 37 469 36 q 482 35 503 34 l 500 12 q 421 -9 378 -9 q 361 -9 348 -6 q 334 -4 324 2 q 313 8 305 19 q 296 29 289 45 q 282 61 269 88 q 256 115 240 148 q 170 47 130 18 q 89 -11 34 -11 q 10 -11 -7 -6 q 6 47 25 104 l 30 106 q 61 98 84 98 q 124 98 152 123 q 181 148 215 201 q 201 231 187 261 q 172 291 160 315 q 148 340 139 358 q 130 376 126 384 q 121 395 114 401 q 106 407 97 410 q 87 413 75 413 q 62 414 44 415 z"},")":{"x_min":0,"x_max":386,"ha":386,"o":"m 186 768 q 347 609 347 393 q 347 48 -10 -185 l -28 -166 q 243 80 243 419 q 243 621 159 749 z"},"&":{"x_min":0,"x_max":761,"ha":761,"o":"m 379 354 q 353 358 329 358 q 256 358 219 318 q 181 277 181 213 q 181 140 231 96 q 281 52 361 52 q 442 52 499 99 q 556 146 556 225 q 556 262 536 289 q 516 315 484 315 q 462 315 448 301 q 435 287 435 266 q 435 238 463 221 l 462 217 q 417 199 375 184 q 359 207 359 230 q 359 292 420 340 q 480 388 557 388 q 584 388 608 384 q 632 380 652 375 q 669 372 683 369 q 697 366 709 366 q 744 366 792 414 l 809 403 q 759 263 684 263 q 652 263 597 283 l 596 281 q 622 240 622 195 q 622 109 538 46 q 454 -17 332 -17 q 201 -17 117 39 q 33 94 33 189 q 33 262 85 314 q 138 366 229 379 l 229 382 q 190 399 168 430 q 147 460 147 498 q 147 582 215 628 q 284 675 396 675 q 465 675 536 657 l 539 654 l 489 510 l 470 507 l 459 618 q 427 629 399 629 q 346 629 315 591 q 284 554 284 492 q 284 449 307 425 q 331 400 388 390 z"},"_":{"x_min":0,"x_max":500,"ha":500,"o":"m 461 -131 l -39 -131 l -39 -87 l 461 -87 z"},"v":{"x_min":0,"x_max":510,"ha":510,"o":"m 219 -4 l 152 -11 q 143 65 119 198 q 96 331 77 383 q 74 391 70 396 q 66 402 58 406 q 50 411 36 413 q 21 415 -3 415 l 0 438 q 87 460 129 460 q 159 460 176 453 q 193 445 201 427 q 206 417 211 399 q 216 381 221 359 q 226 337 231 312 q 236 288 240 264 q 245 241 248 220 q 251 199 253 184 l 260 127 q 306 193 333 268 q 361 342 361 427 q 397 435 430 444 q 463 453 494 462 l 503 457 q 502 424 487 383 q 472 342 448 298 q 423 254 393 209 q 362 165 331 125 q 300 85 270 51 q 241 18 219 -4 z"},"O":{"x_min":0,"x_max":820,"ha":820,"o":"m 373 -17 q 230 -17 143 59 q 57 135 57 270 q 57 450 178 573 q 299 697 479 697 q 622 697 709 622 q 796 546 796 410 q 796 229 675 106 q 553 -17 373 -17 z m 638 426 q 638 532 591 591 q 544 651 465 651 q 349 651 281 538 q 214 425 214 254 q 214 150 260 90 q 307 29 387 29 q 503 29 571 142 q 638 254 638 426 z"},"(":{"x_min":0,"x_max":384,"ha":384,"o":"m 223 -185 q 61 -26 61 190 q 61 535 418 768 l 437 749 q 165 503 165 164 q 166 -38 249 -166 z"},"C":{"x_min":0,"x_max":662,"ha":662,"o":"m 627 499 l 600 495 l 584 635 q 551 646 506 646 q 380 646 296 541 q 212 435 212 286 q 212 175 274 112 q 335 48 442 48 q 509 48 581 78 l 591 49 q 486 -15 362 -15 q 223 -15 140 64 q 57 143 57 274 q 57 459 187 577 q 317 695 513 695 q 598 695 685 675 l 687 670 z"},"W":{"x_min":0,"x_max":964,"ha":964,"o":"m 844 683 q 878 682 906 682 q 935 682 962 682 q 990 682 1018 682 q 1045 682 1070 683 l 1067 658 l 1013 643 q 1001 640 992 634 q 983 628 977 621 q 970 613 965 605 q 960 597 956 588 l 645 0 l 585 -6 l 533 391 l 527 448 l 498 391 l 287 0 l 229 -6 l 152 581 q 150 595 148 605 q 146 616 143 624 q 139 631 133 636 q 126 642 114 645 l 62 658 l 66 683 q 106 682 145 682 q 183 682 219 682 q 286 682 371 683 l 369 658 l 321 645 q 311 641 304 636 q 298 630 298 615 q 298 607 299 592 q 301 578 303 556 l 337 279 l 343 217 l 375 279 l 592 684 l 642 688 l 692 279 l 699 217 l 729 279 l 870 554 q 884 583 893 602 q 902 621 902 629 q 902 639 886 644 l 840 657 z"},"A":{"x_min":0,"x_max":667,"ha":667,"o":"m 158 24 l 154 -1 q 87 0 33 0 q -22 0 -71 -1 l -68 23 l -14 39 q 9 47 22 62 q 35 77 45 93 l 396 686 l 449 694 l 551 101 q 554 84 557 73 q 561 61 564 55 q 572 42 589 37 l 641 23 l 638 -1 q 558 0 487 0 q 418 0 333 -1 l 336 23 l 383 37 q 394 41 400 46 q 407 51 407 67 q 407 82 399 125 l 385 216 l 182 216 l 131 127 q 115 99 105 80 q 96 61 96 53 q 96 43 112 38 z m 210 267 l 376 267 l 348 446 l 341 498 l 313 447 z"},"f":{"x_min":0,"x_max":356,"ha":356,"o":"m 124 396 l 52 415 l 53 436 l 132 443 q 163 584 242 660 q 321 736 428 736 q 478 736 525 722 q 505 655 490 582 l 463 577 l 437 687 q 427 689 412 689 q 367 689 334 648 q 302 606 278 483 l 270 443 l 398 443 l 388 392 l 261 392 l 186 32 q 155 -111 99 -177 q 43 -242 -56 -242 q -94 -242 -144 -232 q -133 -178 -120 -129 l -113 -127 q -57 -191 -30 -191 q -3 -191 16 -152 q 25 -133 33 -99 q 42 -64 51 -13 z"},"Q":{"x_min":0,"x_max":820,"ha":820,"o":"m 720 -89 l 728 -117 q 606 -222 542 -222 q 367 -222 329 -15 q 211 -5 134 68 q 57 141 57 270 q 57 450 178 573 q 299 697 479 697 q 622 697 709 622 q 796 546 796 410 q 796 232 681 113 q 567 -6 407 -16 q 437 -111 594 -116 q 662 -116 720 -89 z m 638 426 q 638 532 591 591 q 544 651 465 651 q 349 651 281 538 q 214 425 214 254 q 214 150 260 90 q 307 29 387 29 q 503 29 571 142 q 638 254 638 426 z"},"w":{"x_min":0,"x_max":759,"ha":759,"o":"m 473 -4 l 406 -11 q 397 43 389 94 q 381 146 372 197 q 289 70 220 -4 l 153 -11 q 148 20 144 50 q 139 79 134 108 q 129 137 124 166 q 119 194 114 225 q 112 239 107 261 q 103 282 98 305 q 93 327 87 348 q 82 369 77 383 q 74 391 70 397 q 66 403 58 407 q 50 411 35 413 q 21 415 -3 415 l 0 438 q 85 460 129 460 q 158 460 175 453 q 192 445 201 427 q 205 417 210 399 q 215 381 220 359 q 226 337 230 312 q 235 288 240 264 q 244 241 248 220 q 251 199 253 184 l 260 127 q 317 201 357 275 q 350 313 341 352 q 333 391 322 433 q 387 446 439 458 l 448 455 q 478 349 505 184 l 513 127 q 557 194 583 268 q 608 342 608 427 q 645 435 677 444 q 710 453 741 462 l 750 457 q 750 424 735 383 q 720 342 696 298 q 672 254 643 209 q 613 165 582 125 q 551 84 523 51 q 494 18 473 -4 z"},"-":{"x_min":0,"x_max":333,"ha":333,"o":"m 45 278 l 297 278 l 283 207 l 31 207 z"},"E":{"x_min":0,"x_max":597,"ha":597,"o":"m 277 682 l 373 682 q 489 682 621 684 l 623 680 l 567 517 l 540 513 l 526 632 l 343 632 l 293 372 l 314 372 q 350 372 412 373 q 426 373 431 386 l 461 453 l 492 454 q 467 347 451 246 l 421 244 l 416 311 q 415 324 403 324 q 360 325 304 325 l 284 325 l 252 158 q 242 104 232 50 l 432 50 l 514 180 l 544 185 l 502 2 l 499 -1 q 368 0 253 0 l 144 0 q 71 0 1 -1 l 4 23 l 70 42 q 83 45 87 57 q 91 76 96 100 q 101 125 106 154 l 181 542 q 186 567 189 587 q 192 607 195 623 q 197 636 187 640 l 122 659 l 126 684 q 200 682 277 682 z"},"s":{"x_min":0,"x_max":455,"ha":455,"o":"m 343 405 q 313 413 288 413 q 239 413 212 396 q 185 379 185 346 q 185 332 193 321 q 200 311 213 302 q 227 292 243 284 q 260 276 278 268 q 299 258 321 246 q 342 234 359 219 q 375 204 386 183 q 396 163 396 136 q 396 64 340 26 q 284 -13 185 -13 q 138 -13 92 -4 q 46 4 8 19 q 17 48 24 81 q 32 113 39 146 l 63 150 l 95 45 q 131 35 166 35 q 210 35 237 53 q 263 72 263 107 q 263 122 255 133 q 248 145 235 154 q 222 163 205 171 q 188 179 171 188 q 150 197 131 208 q 112 219 96 234 q 81 250 71 270 q 62 290 62 316 q 62 385 121 423 q 181 460 282 460 q 358 460 430 438 q 422 413 415 381 q 407 350 400 314 l 376 310 z"},">":{"x_min":0,"x_max":552,"ha":552,"o":"m 506 191 l 36 -4 l 36 67 l 424 225 l 36 383 l 36 455 l 506 260 z"},"l":{"x_min":0,"x_max":319,"ha":319,"o":"m 92 672 l 93 693 q 223 713 320 735 l 326 729 q 321 711 316 687 q 311 664 304 635 q 298 607 292 576 q 285 544 278 510 l 190 84 q 188 75 188 65 q 188 49 201 42 q 214 35 265 35 l 262 12 q 178 -9 127 -9 q 88 -9 69 6 q 49 21 49 50 q 49 59 54 83 l 173 660 z"},"8":{"x_min":0,"x_max":535,"ha":535,"o":"m 184 334 q 109 395 109 479 q 109 558 173 614 q 237 670 339 670 q 427 670 480 631 q 532 592 532 531 q 532 481 495 442 q 458 403 385 372 q 446 331 475 290 q 504 250 504 200 q 504 110 426 49 q 348 -13 237 -13 q 133 -13 73 33 q 13 79 13 154 q 13 213 55 256 q 97 299 184 334 z m 220 307 q 143 266 143 162 q 143 102 173 68 q 202 34 251 34 q 299 34 331 63 q 362 91 362 139 q 362 184 332 219 q 301 255 220 307 z m 344 399 q 411 437 411 524 q 411 572 387 599 q 364 625 323 625 q 283 625 258 600 q 232 576 232 535 q 232 500 259 468 q 285 437 344 399 z"},"\\":{"x_min":0,"x_max":403,"ha":403,"o":"m 292 -110 l 101 696 l 169 696 l 360 -110 z"},"e":{"x_min":0,"x_max":514,"ha":514,"o":"m 423 94 l 440 69 q 347 -12 233 -12 q 144 -12 89 36 q 35 84 35 168 q 35 293 124 377 q 212 461 339 461 q 409 461 447 435 q 485 410 485 361 q 485 300 407 259 q 329 218 177 211 q 176 199 176 189 q 176 123 203 89 q 229 54 283 54 q 353 54 423 94 z m 181 250 q 350 266 350 359 q 350 385 338 398 q 326 411 307 411 q 267 411 231 366 q 195 321 181 250 z"},"b":{"x_min":0,"x_max":575,"ha":575,"o":"m 320 735 l 326 729 q 322 711 316 687 q 311 664 305 635 q 299 607 292 576 q 286 544 278 510 l 257 407 q 363 460 396 460 q 457 460 496 410 q 536 360 536 292 q 536 154 448 70 q 360 -13 220 -13 q 134 -13 41 19 q 56 75 79 188 l 126 421 l 175 660 l 94 672 l 95 693 q 223 713 320 735 z m 182 40 q 205 34 226 34 q 301 34 347 104 q 394 175 394 268 q 394 320 379 354 q 365 388 334 388 q 298 388 247 360 z"},"%":{"x_min":0,"x_max":821,"ha":821,"o":""},"m":{"x_min":0,"x_max":908,"ha":908,"o":"m 46 -2 l 122 366 q 126 386 126 392 q 126 400 121 405 q 117 410 107 412 q 98 414 84 415 q 70 415 52 415 l 55 438 q 142 460 188 460 q 222 460 243 448 q 264 436 264 412 q 264 411 263 408 q 263 406 263 402 q 358 460 437 460 q 517 460 541 397 q 646 460 729 460 q 782 460 812 432 q 841 404 841 356 q 841 335 836 312 l 787 80 q 786 76 786 73 q 785 69 785 65 q 785 55 790 49 q 795 43 804 41 q 814 38 828 37 q 842 37 860 37 l 858 14 q 785 -9 724 -9 q 686 -9 667 5 q 647 20 647 52 q 647 67 651 87 l 695 291 q 701 316 701 333 q 701 363 688 377 q 674 391 649 391 q 612 391 547 359 q 547 337 542 312 l 478 2 l 341 -2 l 401 291 q 406 318 406 333 q 406 363 394 377 q 381 391 356 391 q 319 391 255 359 l 183 2 z"},"#":{"x_min":0,"x_max":552,"ha":552,"o":"m 479 632 l 437 445 l 535 445 l 530 375 l 421 375 l 395 252 l 492 252 l 487 181 l 379 181 l 338 -5 l 277 -5 l 318 181 l 184 181 l 143 -5 l 83 -5 l 124 181 l 26 181 l 31 252 l 139 252 l 167 375 l 70 375 l 75 445 l 182 445 l 224 632 l 284 632 l 243 445 l 377 445 l 418 632 z m 200 252 l 334 252 l 361 375 l 227 375 z"},",":{"x_min":0,"x_max":286,"ha":286,"o":"m -33 -132 q 66 -63 66 9 q 66 59 12 88 q 14 122 37 142 q 60 163 90 163 q 124 163 144 140 q 165 117 165 77 q 165 -49 -12 -161 z"},"n":{"x_min":0,"x_max":619,"ha":619,"o":"m 46 -2 l 122 366 q 126 386 126 392 q 126 401 121 405 q 117 410 107 412 q 98 414 84 415 q 70 415 52 415 l 55 438 q 143 460 188 460 q 222 460 243 448 q 264 436 264 412 q 264 409 263 402 q 360 460 440 460 q 493 460 523 432 q 552 404 552 356 q 552 335 547 312 l 498 80 q 497 76 497 73 q 496 69 496 65 q 496 55 501 49 q 506 43 515 41 q 525 38 539 37 q 553 37 571 37 l 569 14 q 496 -9 435 -9 q 397 -9 378 5 q 358 20 358 52 q 358 67 362 87 l 406 291 q 412 316 412 333 q 412 363 398 377 q 385 391 360 391 q 322 391 255 359 l 183 2 z"},"h":{"x_min":0,"x_max":611,"ha":611,"o":"m 40 -2 l 175 660 l 94 672 l 95 693 q 225 713 322 735 l 328 729 q 323 711 318 687 q 312 664 306 635 q 300 607 294 576 q 287 544 280 510 l 258 403 q 354 460 433 460 q 486 460 515 432 q 545 404 545 356 q 545 335 540 312 l 491 80 q 490 76 489 73 q 489 69 489 65 q 489 55 494 49 q 499 43 508 41 q 518 38 532 37 q 546 37 564 37 l 562 14 q 489 -9 428 -9 q 390 -9 370 5 q 351 20 351 52 q 351 67 355 87 l 399 291 q 404 316 404 333 q 404 363 391 377 q 378 391 353 391 q 315 391 249 359 l 175 2 z"},"z":{"x_min":0,"x_max":508,"ha":508,"o":"m 0 15 q 94 129 156 209 q 218 289 305 404 l 146 404 l 105 302 l 80 298 l 71 445 l 74 450 q 173 448 279 448 q 389 448 492 450 l 494 435 q 413 335 340 240 q 267 145 193 46 l 354 46 l 424 151 l 451 154 l 423 2 l 418 -1 q 330 0 209 0 q 86 0 2 -1 z"},"B":{"x_min":0,"x_max":635,"ha":635,"o":"m 126 684 q 210 682 277 682 q 298 682 340 684 q 382 687 399 687 q 509 687 565 649 q 621 611 621 547 q 621 404 447 370 q 593 330 593 218 q 593 112 507 54 q 421 -3 280 -3 q 254 -3 222 -1 q 190 0 144 0 q 81 0 2 -1 l 4 23 l 70 42 q 83 45 87 57 q 91 76 96 100 q 101 125 106 154 l 181 542 q 186 567 189 587 q 192 607 195 623 q 197 635 187 640 l 123 659 z m 286 339 l 230 48 q 252 42 288 42 q 359 42 398 84 q 437 127 437 209 q 437 273 409 307 q 380 341 327 341 q 304 341 286 339 z m 295 384 q 312 383 332 383 q 401 383 436 421 q 472 458 472 534 q 472 585 447 613 q 422 640 374 640 q 359 640 343 638 z"},"K":{"x_min":0,"x_max":743,"ha":743,"o":"m 297 342 l 533 561 q 566 591 582 609 q 597 627 597 636 q 597 644 587 646 l 548 657 l 552 684 q 603 682 664 682 q 726 682 777 684 l 774 659 l 724 643 q 704 637 685 625 q 666 613 636 585 l 428 389 l 593 93 q 608 66 620 53 q 633 41 655 34 l 693 23 l 690 -1 q 632 0 571 0 q 526 0 479 -1 q 474 17 458 49 q 441 82 414 131 z m 251 154 q 245 125 241 101 q 236 77 233 57 q 232 45 247 41 l 302 23 l 298 -1 q 219 0 152 0 q 80 0 2 -1 l 4 23 l 70 42 q 84 45 87 57 q 91 76 96 100 q 101 125 106 154 l 181 542 q 186 567 189 587 q 193 607 195 623 q 197 636 187 640 l 123 659 l 127 684 q 206 682 280 682 q 354 682 423 684 l 420 659 l 358 641 q 346 638 343 625 q 338 608 334 588 q 331 568 326 544 z"},"R":{"x_min":0,"x_max":687,"ha":687,"o":"m 126 684 q 166 683 206 682 q 246 682 277 682 q 292 682 334 684 q 376 686 395 686 q 512 686 572 647 q 631 609 631 532 q 631 392 452 336 q 459 323 466 308 q 473 292 479 279 q 484 266 490 253 q 495 239 500 226 q 511 199 521 175 q 532 150 543 124 q 552 102 562 84 q 571 67 584 54 q 596 42 614 33 q 631 25 658 21 l 655 -3 q 612 -8 573 -8 q 538 -8 512 -4 q 486 -1 467 9 q 447 19 433 37 q 418 55 406 84 q 397 106 388 128 q 379 151 371 176 q 361 203 350 233 q 339 264 327 294 q 324 302 320 309 q 315 315 304 316 l 282 317 l 251 154 q 246 125 241 101 q 237 78 234 59 q 232 43 243 40 l 299 23 l 295 -1 q 259 0 223 0 q 187 0 152 0 q 116 0 77 0 q 39 0 2 -1 l 4 23 l 70 42 q 83 45 87 57 q 91 76 96 100 q 101 125 106 154 l 181 542 q 186 567 189 587 q 193 606 195 623 q 197 636 187 640 l 123 659 z m 291 360 q 300 358 311 358 q 475 358 475 521 q 475 579 448 609 q 421 639 371 639 q 356 639 343 637 z"},"T":{"x_min":0,"x_max":618,"ha":618,"o":"m 172 632 l 102 501 l 74 497 l 94 680 l 99 684 q 160 683 216 682 q 272 682 327 682 l 461 682 q 518 682 576 682 q 634 683 696 684 l 698 680 l 634 501 l 606 497 l 600 632 l 457 632 l 366 156 q 361 126 356 103 q 352 79 349 59 q 347 47 362 42 l 429 23 l 425 -1 q 334 0 267 0 q 195 0 110 -1 l 112 23 l 186 43 q 199 47 202 59 q 207 78 211 102 q 216 126 222 156 l 313 632 z"},"P":{"x_min":0,"x_max":616,"ha":616,"o":"m 286 333 q 303 327 331 327 q 402 327 445 374 q 487 421 487 507 q 487 569 457 604 q 426 638 377 638 q 360 638 343 634 z m 5 23 l 71 42 q 85 45 87 57 q 91 76 96 100 q 101 125 107 154 l 181 542 q 186 567 189 587 q 192 607 195 623 q 197 635 187 640 l 123 659 l 127 684 q 164 683 200 682 q 237 682 274 682 q 303 682 337 684 q 372 686 392 686 q 509 686 574 641 q 640 597 640 511 q 640 405 556 343 q 472 281 347 281 q 311 281 277 287 l 251 154 q 246 125 242 101 q 238 77 234 58 q 233 47 244 43 l 314 23 l 310 -1 q 218 0 149 0 q 80 0 2 -1 z"},"|":{"x_min":0,"x_max":353,"ha":353,"o":"m 226 745 l 226 -248 l 156 -248 l 156 745 z"},"t":{"x_min":0,"x_max":414,"ha":414,"o":"m 218 563 l 298 578 l 304 574 q 282 482 273 443 l 411 443 l 401 392 l 262 392 q 248 330 233 265 q 219 201 206 136 q 201 114 201 98 q 201 70 215 59 q 229 48 253 48 q 287 48 342 63 l 347 31 q 257 -13 177 -13 q 122 -13 92 10 q 62 32 62 77 q 62 91 64 109 q 73 155 89 226 q 104 296 127 396 l 58 415 l 60 436 l 146 443 z"},"M":{"x_min":0,"x_max":931,"ha":931,"o":"m 738 684 q 794 682 840 682 q 888 682 972 684 l 969 659 l 899 640 q 887 636 884 623 q 876 591 867 542 l 793 154 q 783 96 776 57 q 774 45 786 42 l 847 23 l 843 -1 q 760 0 689 0 q 619 0 551 -1 l 554 23 l 613 41 q 625 44 629 58 q 637 96 648 154 l 725 547 l 395 0 l 349 -4 l 231 543 l 157 154 q 146 96 140 58 q 138 44 149 41 l 206 23 l 202 -1 q 136 0 96 0 q 59 0 -12 -1 l -9 23 l 59 42 q 73 45 75 57 q 84 96 95 154 l 168 542 q 178 591 183 623 q 185 636 174 640 l 112 659 l 116 684 q 201 682 247 682 q 296 682 344 684 l 436 257 q 442 228 447 201 q 462 227 477 252 z"},"g":{"x_min":0,"x_max":571,"ha":571,"o":"m 528 460 l 537 455 q 519 397 500 304 l 455 84 q 420 -83 349 -164 q 278 -245 158 -245 q 76 -245 -12 -218 q 4 -151 22 -95 l 29 -92 q 154 -188 191 -188 q 233 -188 259 -139 q 284 -90 307 20 l 316 65 q 231 -8 190 -8 q 124 -8 80 42 q 35 92 35 170 q 35 293 119 377 q 203 461 331 461 q 393 461 457 443 q 494 450 528 460 z m 387 404 q 359 416 322 416 q 259 416 218 344 q 176 271 176 189 q 176 142 192 104 q 207 66 228 66 q 256 66 327 119 z"},"j":{"x_min":0,"x_max":312,"ha":312,"o":"m 52 415 l 55 438 q 143 460 197 460 q 230 460 248 448 q 267 437 267 413 q 267 402 265 393 l 196 60 q 177 -31 121 -98 q 64 -165 -79 -249 l -102 -222 q 0 -127 22 -75 q 43 -22 58 49 l 122 366 q 126 385 126 391 q 126 404 115 410 q 104 415 52 415 z m 301 632 q 301 599 280 578 q 260 557 229 557 q 199 557 180 577 q 160 596 160 626 q 160 661 181 680 q 201 700 232 700 q 262 700 281 682 q 301 664 301 632 z"},"i":{"x_min":0,"x_max":323,"ha":323,"o":"m 53 438 q 141 460 195 460 q 228 460 246 448 q 265 437 265 413 q 265 402 263 393 l 199 85 q 196 72 196 66 q 196 47 212 41 q 229 35 272 35 l 269 12 q 186 -9 134 -9 q 98 -9 78 5 q 58 20 58 48 q 58 62 62 83 l 120 366 q 124 385 124 391 q 124 404 113 410 q 102 415 50 415 z m 299 632 q 299 599 278 578 q 258 557 227 557 q 197 557 178 577 q 158 596 158 626 q 158 661 179 680 q 199 700 230 700 q 260 700 280 682 q 299 664 299 632 z"},"y":{"x_min":0,"x_max":520,"ha":520,"o":"m 377 427 q 449 447 508 464 l 519 457 q 500 404 480 358 q 459 312 439 271 q 418 229 397 193 q 376 157 357 125 q 336 91 319 61 q 301 32 285 4 q 272 -17 259 -44 q 246 -71 233 -99 q 220 -127 209 -154 q 198 -181 191 -200 q 185 -216 177 -225 q 168 -234 156 -239 q 144 -243 127 -244 q 110 -245 87 -245 q 26 -245 -19 -240 l -21 -215 q 8 -212 32 -205 q 56 -197 73 -184 q 83 -176 96 -164 q 108 -152 125 -131 q 142 -111 165 -79 q 188 -48 218 -1 l 191 5 q 188 32 180 67 q 173 102 163 140 q 153 178 142 217 q 131 256 120 289 q 108 322 98 347 q 88 373 81 384 q 73 396 63 402 q 54 408 43 410 q 32 413 19 414 q 6 415 -8 415 l -5 438 q 78 460 125 460 q 151 460 171 452 q 192 444 202 427 q 209 414 220 388 q 230 363 242 329 q 253 296 264 257 q 276 218 285 177 l 294 125 q 332 199 353 274 q 375 349 377 427 z"},"@":{"x_min":0,"x_max":881,"ha":881,"o":"m 552 19 q 516 19 491 36 q 467 53 461 87 q 384 21 344 21 q 317 21 295 32 q 274 43 259 62 q 244 81 235 107 q 227 134 227 165 q 227 219 246 267 q 265 315 298 351 q 331 387 375 407 q 420 428 472 428 q 510 428 564 412 q 602 415 644 426 l 649 422 q 642 398 634 362 q 625 327 616 279 l 585 129 q 582 115 582 106 q 582 72 610 72 q 629 72 651 90 q 674 107 693 139 q 713 170 726 215 q 739 259 739 313 q 739 366 721 410 q 703 453 672 484 q 640 515 597 532 q 553 549 502 549 q 450 549 404 534 q 358 520 320 494 q 282 468 252 432 q 223 396 202 354 q 181 311 170 263 q 159 216 159 166 q 159 103 180 51 q 200 -1 238 -38 q 275 -75 327 -95 q 379 -115 443 -115 q 494 -115 537 -106 q 581 -97 618 -82 q 655 -66 685 -45 q 716 -24 741 0 l 763 -28 q 724 -64 685 -92 q 647 -119 604 -137 q 562 -155 512 -165 q 463 -174 403 -174 q 325 -174 260 -151 q 195 -128 148 -85 q 102 -43 76 17 q 50 76 50 149 q 50 207 64 262 q 79 317 107 367 q 135 416 175 458 q 215 499 266 529 q 317 559 378 576 q 439 593 509 593 q 555 593 597 583 q 639 573 675 554 q 710 536 740 510 q 770 485 790 454 q 811 422 822 387 q 833 351 833 312 q 833 248 810 194 q 786 140 746 101 q 707 62 656 41 q 605 19 552 19 z m 512 371 q 490 386 466 386 q 416 386 386 321 q 355 255 355 187 q 355 140 365 114 q 375 87 397 87 q 420 87 462 127 z"},".":{"x_min":0,"x_max":286,"ha":286,"o":"m 113 139 q 146 139 167 118 q 188 98 188 63 q 188 30 167 8 q 146 -13 113 -13 q 80 -13 59 8 q 38 30 38 63 q 38 98 59 118 q 80 139 113 139 z"},"p":{"x_min":0,"x_max":581,"ha":581,"o":"m -65 -213 l -7 -197 q 7 -192 9 -182 q 13 -164 19 -137 q 24 -110 32 -74 l 122 366 q 126 386 126 391 q 126 404 115 410 q 103 415 52 415 l 55 438 q 140 460 194 460 q 227 460 244 449 q 262 438 262 413 l 262 407 l 263 407 q 368 460 403 460 q 462 460 502 411 q 542 362 542 292 q 542 158 456 73 q 370 -12 233 -12 q 208 -12 178 -8 l 157 -109 q 152 -134 149 -151 q 146 -167 144 -178 q 142 -192 154 -195 l 225 -213 l 220 -237 q 124 -236 73 -236 q 14 -236 -68 -237 z m 187 38 q 208 34 225 34 q 306 34 353 104 q 399 174 399 268 q 399 321 385 354 q 370 388 340 388 q 303 388 253 360 z"},"X":{"x_min":0,"x_max":669,"ha":669,"o":"m -42 23 l 10 39 q 30 44 45 58 q 61 71 78 91 l 289 333 l 166 598 q 162 607 157 615 q 153 623 148 629 q 143 635 137 639 q 130 643 122 646 l 76 659 l 80 684 q 113 683 150 682 q 187 682 229 682 q 268 682 305 682 q 343 683 384 684 l 381 659 l 339 646 q 315 640 315 621 q 315 605 333 568 l 397 430 l 523 578 q 534 590 540 598 q 546 606 550 612 q 553 618 554 622 q 555 626 555 630 q 555 641 539 646 l 499 657 l 502 684 q 530 683 559 682 q 588 682 619 682 q 649 682 676 682 q 704 683 729 684 l 726 659 l 673 643 q 650 636 635 621 q 619 606 601 585 l 421 379 l 555 92 q 561 80 566 70 q 570 61 575 54 q 580 48 587 44 q 593 40 603 37 l 649 23 l 646 -1 q 580 0 506 0 q 430 0 341 -1 l 344 23 l 388 36 q 409 42 409 62 q 409 77 391 114 l 312 283 l 159 104 q 149 92 144 84 q 138 77 134 71 q 130 65 129 61 q 128 57 128 53 q 128 41 146 36 l 184 24 l 180 -1 q 124 0 63 0 q 9 0 -45 -1 z"},"*":{"x_min":0,"x_max":440,"ha":440,"o":"m 468 507 l 312 522 l 394 394 l 320 360 l 286 511 l 190 395 l 133 454 l 269 533 l 127 588 l 166 661 l 283 557 l 292 708 l 373 693 l 311 550 l 458 587 z"},"Y":{"x_min":0,"x_max":616,"ha":616,"o":"m 515 557 q 532 581 545 599 q 557 618 557 628 q 557 641 539 646 l 496 657 l 500 684 q 559 682 616 682 q 671 682 727 684 l 725 659 l 667 643 q 648 638 636 626 q 625 614 612 597 l 403 312 l 372 154 q 366 125 362 101 q 358 77 354 57 q 353 45 368 41 l 428 23 l 423 -1 q 340 0 271 0 q 201 0 124 -1 l 126 23 l 192 42 q 205 45 208 57 q 212 76 217 100 q 222 125 228 154 l 257 307 l 148 583 q 136 613 127 626 q 118 640 100 645 l 51 659 l 53 684 q 113 682 203 682 q 274 682 359 684 l 358 659 l 309 646 q 298 644 292 638 q 286 632 286 622 q 286 608 302 568 l 379 368 z"},"c":{"x_min":0,"x_max":489,"ha":489,"o":"m 399 98 l 416 73 q 332 -13 225 -13 q 143 -13 90 38 q 36 89 36 177 q 36 297 125 379 q 214 460 336 460 q 405 460 467 438 q 449 367 435 294 l 411 290 l 373 408 q 360 412 343 412 q 270 412 224 348 q 179 285 179 192 q 179 127 207 91 q 236 55 285 55 q 338 55 399 98 z"},"!":{"x_min":0,"x_max":305,"ha":305,"o":"m 131 203 l 170 662 l 323 668 l 327 664 l 170 205 z m 134 135 q 166 135 186 115 q 207 94 207 61 q 207 28 185 8 q 164 -13 132 -13 q 100 -13 80 8 q 60 28 60 61 q 60 94 81 115 q 102 135 134 135 z"},"/":{"x_min":0,"x_max":403,"ha":403,"o":"m 29 -110 l 325 696 l 391 696 l 98 -110 z"},"[":{"x_min":0,"x_max":355,"ha":355,"o":"m 117 -121 l 231 -149 l 227 -174 l 19 -174 l 209 756 l 417 756 l 413 731 l 286 704 z"},"6":{"x_min":0,"x_max":548,"ha":548,"o":"m 373 230 q 372 288 348 319 q 325 351 282 351 q 229 351 195 301 q 160 250 160 170 q 160 107 183 71 q 206 34 247 34 q 301 34 337 88 q 373 143 373 230 z m 513 246 q 513 130 438 59 q 362 -13 249 -13 q 144 -13 86 44 q 28 101 28 204 q 28 396 167 532 q 307 668 542 680 l 544 636 q 284 605 195 354 l 197 353 q 257 417 346 417 q 417 417 465 372 q 513 327 513 246 z"},"r":{"x_min":0,"x_max":440,"ha":440,"o":"m 46 -2 l 122 366 q 126 387 126 392 q 126 400 121 405 q 117 410 107 412 q 98 414 84 415 q 70 415 52 415 l 55 438 q 142 460 188 460 q 222 460 243 448 q 263 436 263 412 q 263 407 263 401 q 353 461 443 461 l 446 457 q 429 380 413 295 l 382 291 q 374 344 361 363 q 348 382 324 382 q 298 382 255 361 l 183 2 z"},"2":{"x_min":0,"x_max":485,"ha":485,"o":"m 417 169 l 446 173 l 404 2 l 400 -1 q 311 0 190 0 q 42 0 -11 -1 l -3 58 q 34 80 70 101 q 106 122 139 142 q 171 162 199 182 q 226 202 246 222 q 266 243 277 264 q 288 286 288 309 q 288 350 262 372 q 236 394 192 394 q 145 394 85 363 l 69 401 q 164 464 262 464 q 337 464 382 427 q 426 391 426 338 q 426 294 406 263 q 387 232 349 206 q 312 179 257 154 q 203 128 135 96 l 135 94 l 368 94 z"},"{":{"x_min":0,"x_max":353,"ha":353,"o":"m 55 302 q 80 307 98 314 q 115 320 127 332 q 140 343 147 361 q 155 379 161 406 l 206 622 q 214 663 230 690 q 247 717 273 733 q 299 749 335 755 q 372 761 420 761 l 415 735 q 379 728 359 718 q 338 708 327 693 q 315 679 310 659 q 304 639 298 611 l 266 452 q 260 421 251 396 q 242 370 227 350 q 211 330 189 315 q 167 301 134 292 l 133 290 q 153 283 168 275 q 182 266 191 255 q 200 244 204 229 q 208 214 208 195 q 208 181 206 165 q 204 148 200 130 l 167 -28 q 164 -46 161 -61 q 158 -76 158 -88 q 158 -100 162 -110 q 165 -120 174 -127 q 182 -135 197 -141 q 211 -147 232 -152 l 228 -178 q 191 -178 161 -174 q 130 -171 109 -161 q 88 -150 76 -132 q 65 -113 65 -82 q 65 -61 70 -39 l 114 178 q 119 200 119 218 q 119 234 115 245 q 110 255 101 262 q 92 270 80 274 q 67 278 52 282 z"},"9":{"x_min":0,"x_max":546,"ha":546,"o":"m 170 221 q 170 163 194 131 q 218 100 259 100 q 310 100 346 147 q 383 194 383 280 q 383 343 360 380 q 337 417 296 417 q 242 417 206 362 q 170 307 170 221 z m 30 206 q 30 320 106 392 q 182 463 294 463 q 399 463 457 407 q 515 351 515 247 q 515 60 379 -78 q 243 -216 1 -229 l -1 -185 q 258 -155 348 97 l 346 98 q 287 34 197 34 q 127 34 78 78 q 30 123 30 206 z"}," ":{"x_min":0,"x_max":229,"ha":229,"o":""},"I":{"x_min":0,"x_max":389,"ha":389,"o":"m 251 154 q 245 125 241 101 q 236 77 233 57 q 232 45 247 41 l 307 23 l 303 -1 q 220 0 152 0 q 80 0 2 -1 l 4 23 l 70 42 q 84 45 87 57 q 91 76 96 100 q 101 125 106 154 l 181 542 q 186 567 189 587 q 193 607 195 623 q 198 636 187 640 l 123 659 l 127 684 q 169 683 207 682 q 245 682 280 682 q 315 682 352 682 q 389 683 428 684 l 425 659 l 358 641 q 346 638 343 625 q 338 608 334 588 q 331 568 326 544 z"},"H":{"x_min":0,"x_max":828,"ha":828,"o":"m 286 335 l 251 154 q 240 96 234 57 q 232 44 244 41 l 301 23 l 297 -1 q 219 0 155 0 q 83 0 2 -1 l 5 23 l 71 42 q 85 45 87 57 q 96 96 107 153 l 181 542 q 190 590 195 623 q 197 636 187 640 l 123 659 l 127 684 q 212 682 282 682 q 349 682 425 684 l 422 658 l 358 641 q 346 638 343 626 q 335 591 326 543 l 296 387 l 590 387 l 620 544 q 629 591 635 626 q 637 639 625 642 l 568 659 l 572 684 q 652 682 717 682 q 789 682 872 684 l 869 659 l 795 640 q 784 636 781 623 q 773 591 764 542 l 690 154 q 680 96 673 57 q 672 45 683 42 l 746 23 l 742 -1 q 655 0 585 0 q 518 0 445 -1 l 448 23 l 510 41 q 523 44 526 57 q 535 96 546 154 l 580 335 z"},"4":{"x_min":0,"x_max":523,"ha":523,"o":"m 253 70 l 285 241 l 419 248 l 386 70 l 490 70 l 478 -4 q 425 -2 372 -2 l 362 -57 q 356 -86 350 -121 q 344 -155 338 -195 q 269 -200 204 -208 l 200 -204 q 216 -128 228 -65 l 239 -2 l 128 -2 q 33 -2 -26 -4 l -18 54 q 166 266 361 460 l 460 464 l 462 458 q 276 297 72 70 z"},"~":{"x_min":0,"x_max":552,"ha":552,"o":"m 36 248 q 103 291 162 291 q 194 291 224 281 q 254 271 284 259 q 312 248 338 239 q 365 229 393 229 q 441 229 506 272 l 506 203 q 443 163 384 163 q 352 163 321 172 q 291 182 261 194 q 232 205 206 213 q 180 222 152 222 q 103 222 36 179 z"},"D":{"x_min":0,"x_max":794,"ha":794,"o":"m 144 0 q 71 0 2 -1 l 5 23 l 71 42 q 85 45 87 57 q 91 76 96 100 q 101 125 107 154 l 181 542 q 186 567 189 587 q 192 607 195 623 q 197 635 187 640 l 123 659 l 126 684 q 201 682 275 682 q 306 682 353 684 q 399 687 435 687 q 591 687 679 620 q 766 554 766 423 q 766 236 638 116 q 509 -3 303 -3 q 266 -3 234 -1 q 203 0 144 0 z m 231 48 q 268 42 301 42 q 446 42 529 146 q 612 250 612 424 q 612 534 567 587 q 522 639 429 639 q 392 639 343 635 z"},"^":{"x_min":0,"x_max":552,"ha":552,"o":"m 325 682 l 516 274 l 443 274 l 290 605 l 137 274 l 66 274 l 256 682 z"},"0":{"x_min":0,"x_max":577,"ha":577,"o":"m 303 419 q 242 419 209 341 q 175 262 175 152 q 175 92 197 62 q 219 32 262 32 q 322 32 356 107 q 390 182 390 300 q 390 360 368 390 q 346 419 303 419 z m 309 464 q 410 464 470 413 q 531 362 531 269 q 531 136 457 62 q 383 -12 256 -12 q 156 -12 95 39 q 34 89 34 183 q 34 314 107 389 q 180 464 309 464 z"},"F":{"x_min":0,"x_max":557,"ha":557,"o":"m 251 154 q 245 125 241 101 q 236 77 233 57 q 232 45 247 41 l 312 23 l 308 -1 q 220 0 148 0 q 71 0 1 -1 l 4 23 l 70 42 q 83 45 87 57 q 91 76 96 100 q 101 125 106 154 l 181 542 q 186 567 189 587 q 192 607 195 623 q 197 636 187 640 l 122 659 l 126 684 q 200 682 277 682 l 374 682 q 490 682 622 684 l 624 680 l 568 517 l 541 513 l 527 632 l 343 632 l 292 361 l 316 361 q 351 361 414 362 q 427 362 433 375 l 463 442 l 493 443 q 469 336 453 235 l 422 233 l 417 300 q 416 313 405 313 q 362 314 306 314 l 282 314 z"},"`":{"x_min":0,"x_max":410,"ha":410,"o":"m 282 510 l 241 510 l 144 694 l 257 694 z m 0 461 z"},"k":{"x_min":0,"x_max":577,"ha":577,"o":"m 97 672 l 97 693 q 227 712 324 735 l 330 729 q 321 693 309 635 q 297 578 282 510 l 178 2 l 42 -2 l 178 660 z m 544 -1 q 480 0 420 0 q 383 0 354 -1 q 335 51 307 110 q 278 168 236 240 q 320 314 369 365 q 418 416 437 449 q 452 448 477 448 q 533 448 590 450 l 587 425 q 563 421 544 416 q 524 411 508 404 q 491 397 476 387 q 460 377 444 363 l 360 285 l 467 85 q 477 66 484 56 q 491 46 499 40 q 507 34 519 30 q 530 27 549 22 z"},"u":{"x_min":0,"x_max":618,"ha":618,"o":"m 45 415 l 48 438 q 133 460 190 460 q 223 460 240 449 q 258 438 258 413 q 258 401 256 393 l 208 171 q 203 149 203 131 q 203 98 218 80 q 232 62 257 62 q 301 62 362 117 l 430 445 l 567 450 l 493 88 q 490 74 490 65 q 490 55 493 49 q 497 43 506 40 q 515 37 529 36 q 543 35 565 35 l 562 12 q 477 -9 434 -9 q 397 -9 376 8 q 355 25 355 56 q 355 61 355 65 q 274 -14 196 -14 q 138 -14 103 21 q 68 55 68 115 q 68 128 70 142 q 72 156 75 171 l 115 366 q 119 385 119 391 q 119 404 107 410 q 95 415 45 415 z"},"]":{"x_min":0,"x_max":355,"ha":355,"o":"m 262 704 l 147 731 l 151 756 l 360 756 l 169 -174 l -39 -174 l -34 -149 l 93 -121 z"},"U":{"x_min":0,"x_max":734,"ha":734,"o":"m 108 684 q 149 683 185 682 q 221 682 255 682 q 290 682 326 682 q 362 683 400 684 l 397 659 l 336 641 q 325 638 322 625 q 319 608 315 588 q 312 568 307 544 l 260 292 q 249 231 249 190 q 249 118 282 80 q 316 42 382 42 q 426 42 458 59 q 489 76 510 105 q 532 134 545 174 q 559 214 568 259 l 622 544 q 626 568 629 588 q 633 608 636 625 q 637 638 626 641 l 565 657 l 569 684 q 604 683 632 682 q 660 682 682 682 q 704 682 731 682 q 759 683 792 684 l 790 659 l 722 640 q 709 636 707 623 q 703 607 699 587 q 695 567 690 542 l 643 295 q 628 221 607 163 q 586 105 552 65 q 518 25 468 5 q 418 -16 346 -16 q 230 -16 167 38 q 104 93 104 198 q 104 238 113 283 l 162 542 q 167 567 170 587 q 174 607 177 623 q 179 636 168 640 l 104 659 z"},"o":{"x_min":0,"x_max":586,"ha":586,"o":"m 312 461 q 417 461 480 406 q 543 351 543 258 q 543 141 467 64 q 391 -13 270 -13 q 163 -13 100 42 q 38 97 38 187 q 38 306 113 383 q 188 461 312 461 z m 306 411 q 252 411 216 344 q 181 277 181 185 q 182 115 206 76 q 230 37 275 37 q 331 37 365 106 q 399 174 399 264 q 399 333 375 372 q 350 411 306 411 z"},"N":{"x_min":0,"x_max":720,"ha":720,"o":"m 112 659 l 116 684 q 150 683 176 682 q 202 682 220 682 q 232 682 244 682 q 255 683 268 684 l 521 268 q 535 242 551 214 l 564 286 l 613 544 q 618 568 621 589 q 625 609 627 626 q 629 637 618 641 l 558 658 l 562 684 q 596 683 623 682 q 650 682 671 682 q 693 682 720 682 q 747 683 780 684 l 778 659 l 708 640 q 696 636 693 624 q 689 607 685 587 q 681 567 676 542 l 573 0 l 520 -5 l 250 436 q 237 458 221 490 q 217 471 214 454 q 211 437 208 422 l 159 153 q 154 124 150 100 q 146 77 142 58 q 140 44 151 41 l 210 24 l 207 -1 q 142 0 100 0 q 58 0 -10 -1 l -8 23 l 61 41 q 74 45 77 56 q 81 76 86 100 q 91 124 96 153 l 168 542 q 173 567 177 587 q 180 607 183 624 q 185 636 174 640 z"},"+":{"x_min":0,"x_max":552,"ha":552,"o":"m 36 260 l 237 260 l 237 461 l 306 461 l 306 260 l 506 260 l 506 191 l 306 191 l 306 -10 l 237 -10 l 237 191 l 36 191 z"},"G":{"x_min":0,"x_max":727,"ha":727,"o":"m 643 503 l 614 500 l 601 634 q 561 647 504 647 q 375 647 293 541 q 211 435 211 288 q 211 177 265 104 q 319 32 408 32 q 428 32 449 36 l 474 166 q 479 191 482 211 q 486 230 489 247 q 491 260 480 264 l 421 283 l 424 304 q 464 303 501 302 q 538 302 572 302 q 608 302 642 302 q 676 303 708 304 l 707 283 l 653 267 q 639 263 637 252 q 632 232 628 212 q 625 192 620 168 l 590 13 l 586 10 q 482 -15 389 -15 q 232 -15 144 61 q 56 136 56 271 q 56 459 186 577 q 317 695 524 695 q 601 695 698 675 l 700 670 z"},"q":{"x_min":0,"x_max":574,"ha":574,"o":"m 185 -213 l 249 -197 q 262 -193 265 -182 q 277 -124 315 61 q 228 -13 189 -13 q 123 -13 79 38 q 35 89 35 167 q 35 291 118 376 q 202 461 330 461 q 391 461 456 443 q 492 449 528 460 l 536 455 q 518 395 500 302 l 421 -80 q 405 -160 401 -181 q 399 -194 410 -197 l 469 -213 l 464 -237 q 384 -236 326 -236 q 267 -236 182 -237 z m 385 404 q 357 416 321 416 q 258 416 217 343 q 176 270 176 186 q 176 136 191 99 q 207 62 227 62 q 255 62 326 114 z"},"d":{"x_min":0,"x_max":581,"ha":581,"o":"m 357 672 l 358 693 q 488 713 585 735 l 591 729 q 586 711 581 687 q 576 664 570 635 q 563 607 557 576 q 550 544 543 510 l 486 237 l 456 85 q 453 74 453 66 q 453 56 457 50 q 461 44 470 40 q 479 37 494 36 q 508 35 529 35 l 526 12 q 440 -9 397 -9 q 360 -9 340 8 q 319 24 319 55 l 319 64 q 229 -13 189 -13 q 123 -13 79 38 q 35 89 35 167 q 35 291 118 376 q 202 461 330 461 q 361 461 396 456 l 438 660 z m 386 404 q 357 416 321 416 q 258 416 217 343 q 176 270 176 186 q 176 136 191 99 q 207 62 227 62 q 255 62 326 114 z"},"1":{"x_min":0,"x_max":365,"ha":365,"o":"m 52 407 l 54 432 q 114 439 176 447 q 238 455 301 464 l 305 460 q 283 373 265 284 l 242 164 q 236 131 231 106 q 227 80 223 60 q 221 45 233 42 l 311 22 l 308 -1 q 263 0 222 0 q 180 0 146 0 q 111 0 75 0 q 39 0 -6 -1 l -3 22 l 73 42 q 87 45 89 58 q 97 97 107 146 l 122 224 q 132 273 139 316 q 146 359 153 397 z"},"5":{"x_min":0,"x_max":467,"ha":467,"o":"m -44 -224 l -39 -182 q 32 -179 88 -164 q 145 -148 184 -123 q 223 -98 244 -64 q 265 -31 265 7 q 265 147 45 154 l 42 158 l 125 453 q 187 451 297 451 q 383 451 453 453 l 455 449 l 417 335 l 150 342 l 127 262 q 270 252 342 196 q 415 140 415 49 q 415 6 398 -31 q 382 -68 353 -98 q 323 -128 282 -152 q 240 -175 189 -191 q 138 -208 79 -216 q 21 -224 -44 -224 z"}}}
